<mxfile host="app.diagrams.net" modified="2023-04-10T10:34:55.056Z" agent="Mozilla/5.0 (Macintosh; Intel Mac OS X 10_15_7) AppleWebKit/537.36 (KHTML, like Gecko) Chrome/112.0.0.0 Safari/537.36" etag="ueidbWx-CW_armVaiQ3p" version="21.1.4" type="github">
  <diagram name="第 1 页" id="1-NrpkV6FgpOHMMqy2pU">
    <mxGraphModel dx="2074" dy="1163" grid="1" gridSize="10" guides="1" tooltips="1" connect="1" arrows="1" fold="1" page="1" pageScale="1" pageWidth="827" pageHeight="1169" math="0" shadow="0">
      <root>
        <mxCell id="0" />
        <mxCell id="1" parent="0" />
        <mxCell id="qtXOKEnL0lzx3GWqz_FI-1" value="业务&#xa;流程图" style="swimlane;childLayout=stackLayout;resizeParent=1;resizeParentMax=0;startSize=30;horizontal=0;horizontalStack=1;" parent="1" vertex="1">
          <mxGeometry x="100" y="230" width="414" height="540" as="geometry">
            <mxRectangle x="110" y="230" width="40" height="60" as="alternateBounds" />
          </mxGeometry>
        </mxCell>
        <mxCell id="qtXOKEnL0lzx3GWqz_FI-26" style="edgeStyle=orthogonalEdgeStyle;rounded=0;orthogonalLoop=1;jettySize=auto;html=1;entryX=1;entryY=0.5;entryDx=0;entryDy=0;" parent="qtXOKEnL0lzx3GWqz_FI-1" source="qtXOKEnL0lzx3GWqz_FI-18" target="qtXOKEnL0lzx3GWqz_FI-19" edge="1">
          <mxGeometry relative="1" as="geometry" />
        </mxCell>
        <mxCell id="VCQyi7zgxXKmvEbAi2gr-6" style="edgeStyle=orthogonalEdgeStyle;rounded=0;orthogonalLoop=1;jettySize=auto;html=1;" parent="qtXOKEnL0lzx3GWqz_FI-1" source="VCQyi7zgxXKmvEbAi2gr-1" target="VCQyi7zgxXKmvEbAi2gr-3" edge="1">
          <mxGeometry relative="1" as="geometry" />
        </mxCell>
        <mxCell id="VCQyi7zgxXKmvEbAi2gr-7" style="edgeStyle=orthogonalEdgeStyle;rounded=0;orthogonalLoop=1;jettySize=auto;html=1;entryX=0;entryY=0.5;entryDx=0;entryDy=0;" parent="qtXOKEnL0lzx3GWqz_FI-1" source="VCQyi7zgxXKmvEbAi2gr-3" target="VCQyi7zgxXKmvEbAi2gr-4" edge="1">
          <mxGeometry relative="1" as="geometry" />
        </mxCell>
        <mxCell id="qtXOKEnL0lzx3GWqz_FI-2" value="施工单位" style="swimlane;startSize=20;" parent="qtXOKEnL0lzx3GWqz_FI-1" vertex="1">
          <mxGeometry x="30" width="140" height="540" as="geometry" />
        </mxCell>
        <mxCell id="qtXOKEnL0lzx3GWqz_FI-27" style="edgeStyle=orthogonalEdgeStyle;rounded=0;orthogonalLoop=1;jettySize=auto;html=1;exitX=0.5;exitY=1;exitDx=0;exitDy=0;entryX=0.5;entryY=0;entryDx=0;entryDy=0;" parent="qtXOKEnL0lzx3GWqz_FI-2" source="qtXOKEnL0lzx3GWqz_FI-19" target="qtXOKEnL0lzx3GWqz_FI-20" edge="1">
          <mxGeometry relative="1" as="geometry" />
        </mxCell>
        <mxCell id="qtXOKEnL0lzx3GWqz_FI-19" value="接单、指派负责人" style="rounded=0;whiteSpace=wrap;html=1;" parent="qtXOKEnL0lzx3GWqz_FI-2" vertex="1">
          <mxGeometry x="20" y="200" width="80" height="40" as="geometry" />
        </mxCell>
        <mxCell id="qtXOKEnL0lzx3GWqz_FI-28" style="edgeStyle=orthogonalEdgeStyle;rounded=0;orthogonalLoop=1;jettySize=auto;html=1;exitX=0.5;exitY=1;exitDx=0;exitDy=0;entryX=0.5;entryY=0;entryDx=0;entryDy=0;" parent="qtXOKEnL0lzx3GWqz_FI-2" source="qtXOKEnL0lzx3GWqz_FI-20" target="qtXOKEnL0lzx3GWqz_FI-21" edge="1">
          <mxGeometry relative="1" as="geometry" />
        </mxCell>
        <mxCell id="qtXOKEnL0lzx3GWqz_FI-20" value="施工" style="rounded=0;whiteSpace=wrap;html=1;" parent="qtXOKEnL0lzx3GWqz_FI-2" vertex="1">
          <mxGeometry x="20" y="270" width="80" height="40" as="geometry" />
        </mxCell>
        <mxCell id="VCQyi7zgxXKmvEbAi2gr-2" value="" style="edgeStyle=orthogonalEdgeStyle;rounded=0;orthogonalLoop=1;jettySize=auto;html=1;" parent="qtXOKEnL0lzx3GWqz_FI-2" source="qtXOKEnL0lzx3GWqz_FI-21" target="VCQyi7zgxXKmvEbAi2gr-1" edge="1">
          <mxGeometry relative="1" as="geometry" />
        </mxCell>
        <mxCell id="qtXOKEnL0lzx3GWqz_FI-21" value="上传施工进度" style="rounded=0;whiteSpace=wrap;html=1;" parent="qtXOKEnL0lzx3GWqz_FI-2" vertex="1">
          <mxGeometry x="20" y="340" width="80" height="30" as="geometry" />
        </mxCell>
        <mxCell id="VCQyi7zgxXKmvEbAi2gr-1" value="施工结束" style="rounded=0;whiteSpace=wrap;html=1;" parent="qtXOKEnL0lzx3GWqz_FI-2" vertex="1">
          <mxGeometry x="20" y="400" width="80" height="30" as="geometry" />
        </mxCell>
        <mxCell id="qtXOKEnL0lzx3GWqz_FI-3" value="保安公司" style="swimlane;startSize=20;" parent="qtXOKEnL0lzx3GWqz_FI-1" vertex="1">
          <mxGeometry x="170" width="120" height="540" as="geometry" />
        </mxCell>
        <mxCell id="qtXOKEnL0lzx3GWqz_FI-18" value="派单" style="rounded=0;whiteSpace=wrap;html=1;" parent="qtXOKEnL0lzx3GWqz_FI-3" vertex="1">
          <mxGeometry x="20" y="200" width="80" height="40" as="geometry" />
        </mxCell>
        <mxCell id="VCQyi7zgxXKmvEbAi2gr-3" value="监理评估工程工作量和质量" style="rounded=0;whiteSpace=wrap;html=1;" parent="qtXOKEnL0lzx3GWqz_FI-3" vertex="1">
          <mxGeometry x="19" y="400" width="81" height="30" as="geometry" />
        </mxCell>
        <mxCell id="qtXOKEnL0lzx3GWqz_FI-4" value="支队" style="swimlane;startSize=20;" parent="qtXOKEnL0lzx3GWqz_FI-1" vertex="1">
          <mxGeometry x="290" width="124" height="540" as="geometry" />
        </mxCell>
        <mxCell id="qtXOKEnL0lzx3GWqz_FI-6" value="发起报修单" style="rounded=0;whiteSpace=wrap;html=1;" parent="qtXOKEnL0lzx3GWqz_FI-4" vertex="1">
          <mxGeometry x="24" y="110" width="80" height="40" as="geometry" />
        </mxCell>
        <mxCell id="qtXOKEnL0lzx3GWqz_FI-5" value="开始" style="rounded=1;whiteSpace=wrap;html=1;" parent="qtXOKEnL0lzx3GWqz_FI-4" vertex="1">
          <mxGeometry x="29" y="50" width="70" height="20" as="geometry" />
        </mxCell>
        <mxCell id="qtXOKEnL0lzx3GWqz_FI-7" style="edgeStyle=orthogonalEdgeStyle;rounded=0;orthogonalLoop=1;jettySize=auto;html=1;exitX=0.5;exitY=1;exitDx=0;exitDy=0;entryX=0.5;entryY=0;entryDx=0;entryDy=0;" parent="qtXOKEnL0lzx3GWqz_FI-4" source="qtXOKEnL0lzx3GWqz_FI-5" target="qtXOKEnL0lzx3GWqz_FI-6" edge="1">
          <mxGeometry relative="1" as="geometry" />
        </mxCell>
        <mxCell id="qtXOKEnL0lzx3GWqz_FI-22" value="结束" style="rounded=1;whiteSpace=wrap;html=1;" parent="qtXOKEnL0lzx3GWqz_FI-4" vertex="1">
          <mxGeometry x="29.5" y="450" width="70" height="20" as="geometry" />
        </mxCell>
        <mxCell id="VCQyi7zgxXKmvEbAi2gr-8" style="edgeStyle=orthogonalEdgeStyle;rounded=0;orthogonalLoop=1;jettySize=auto;html=1;exitX=0.5;exitY=1;exitDx=0;exitDy=0;entryX=0.5;entryY=0;entryDx=0;entryDy=0;" parent="qtXOKEnL0lzx3GWqz_FI-4" source="VCQyi7zgxXKmvEbAi2gr-4" target="qtXOKEnL0lzx3GWqz_FI-22" edge="1">
          <mxGeometry relative="1" as="geometry" />
        </mxCell>
        <mxCell id="VCQyi7zgxXKmvEbAi2gr-4" value="审核" style="rounded=0;whiteSpace=wrap;html=1;" parent="qtXOKEnL0lzx3GWqz_FI-4" vertex="1">
          <mxGeometry x="29" y="400" width="81" height="30" as="geometry" />
        </mxCell>
        <mxCell id="_kZtwYd4gnXS4YfCAxgA-1" value="催单扣分管理" style="rounded=0;whiteSpace=wrap;html=1;" vertex="1" parent="qtXOKEnL0lzx3GWqz_FI-4">
          <mxGeometry x="20" y="280" width="82" height="40" as="geometry" />
        </mxCell>
        <mxCell id="_kZtwYd4gnXS4YfCAxgA-3" style="edgeStyle=none;rounded=0;orthogonalLoop=1;jettySize=auto;html=1;entryX=0;entryY=0.5;entryDx=0;entryDy=0;" edge="1" parent="qtXOKEnL0lzx3GWqz_FI-4" source="_kZtwYd4gnXS4YfCAxgA-1" target="_kZtwYd4gnXS4YfCAxgA-1">
          <mxGeometry relative="1" as="geometry" />
        </mxCell>
        <mxCell id="Z9ltKsfPP9O1XDe6ewwA-5" style="edgeStyle=orthogonalEdgeStyle;rounded=0;orthogonalLoop=1;jettySize=auto;html=1;exitX=0.5;exitY=1;exitDx=0;exitDy=0;entryX=1;entryY=0.5;entryDx=0;entryDy=0;" parent="qtXOKEnL0lzx3GWqz_FI-1" source="qtXOKEnL0lzx3GWqz_FI-6" target="qtXOKEnL0lzx3GWqz_FI-18" edge="1">
          <mxGeometry relative="1" as="geometry">
            <mxPoint x="354" y="190" as="targetPoint" />
          </mxGeometry>
        </mxCell>
        <mxCell id="_kZtwYd4gnXS4YfCAxgA-2" style="edgeStyle=none;rounded=0;orthogonalLoop=1;jettySize=auto;html=1;entryX=0.75;entryY=1;entryDx=0;entryDy=0;dashed=1;" edge="1" parent="qtXOKEnL0lzx3GWqz_FI-1" target="qtXOKEnL0lzx3GWqz_FI-18">
          <mxGeometry relative="1" as="geometry">
            <mxPoint x="310" y="300" as="sourcePoint" />
          </mxGeometry>
        </mxCell>
        <mxCell id="_kZtwYd4gnXS4YfCAxgA-4" style="edgeStyle=none;rounded=0;orthogonalLoop=1;jettySize=auto;html=1;entryX=1;entryY=1;entryDx=0;entryDy=0;exitX=0;exitY=0.5;exitDx=0;exitDy=0;dashed=1;" edge="1" parent="qtXOKEnL0lzx3GWqz_FI-1" source="_kZtwYd4gnXS4YfCAxgA-1" target="qtXOKEnL0lzx3GWqz_FI-19">
          <mxGeometry relative="1" as="geometry" />
        </mxCell>
        <mxCell id="_kZtwYd4gnXS4YfCAxgA-5" style="edgeStyle=none;rounded=0;orthogonalLoop=1;jettySize=auto;html=1;entryX=1;entryY=0.75;entryDx=0;entryDy=0;dashed=1;" edge="1" parent="qtXOKEnL0lzx3GWqz_FI-1" source="_kZtwYd4gnXS4YfCAxgA-1" target="qtXOKEnL0lzx3GWqz_FI-20">
          <mxGeometry relative="1" as="geometry" />
        </mxCell>
        <mxCell id="_kZtwYd4gnXS4YfCAxgA-6" style="edgeStyle=none;rounded=0;orthogonalLoop=1;jettySize=auto;html=1;dashed=1;" edge="1" parent="qtXOKEnL0lzx3GWqz_FI-1" source="_kZtwYd4gnXS4YfCAxgA-1">
          <mxGeometry relative="1" as="geometry">
            <mxPoint x="140" y="350" as="targetPoint" />
          </mxGeometry>
        </mxCell>
        <mxCell id="_kZtwYd4gnXS4YfCAxgA-7" style="edgeStyle=none;rounded=0;orthogonalLoop=1;jettySize=auto;html=1;exitX=0;exitY=1;exitDx=0;exitDy=0;entryX=-0.002;entryY=0.779;entryDx=0;entryDy=0;entryPerimeter=0;" edge="1" parent="1" source="qtXOKEnL0lzx3GWqz_FI-1" target="qtXOKEnL0lzx3GWqz_FI-1">
          <mxGeometry relative="1" as="geometry" />
        </mxCell>
      </root>
    </mxGraphModel>
  </diagram>
</mxfile>
